<mxfile host="app.diagrams.net" modified="2023-06-08T14:22:29.321Z" agent="Mozilla/5.0 (X11; Ubuntu; Linux x86_64; rv:109.0) Gecko/20100101 Firefox/113.0" etag="EKyFHOlJWsJOluKI0H9-" version="21.3.4" type="github">
  <diagram id="C5RBs43oDa-KdzZeNtuy" name="Page-1">
    <mxGraphModel dx="435" dy="751" grid="1" gridSize="10" guides="1" tooltips="1" connect="1" arrows="1" fold="1" page="1" pageScale="1" pageWidth="827" pageHeight="1169" math="0" shadow="0">
      <root>
        <mxCell id="WIyWlLk6GJQsqaUBKTNV-0" />
        <mxCell id="WIyWlLk6GJQsqaUBKTNV-1" parent="WIyWlLk6GJQsqaUBKTNV-0" />
        <mxCell id="NNcABHQYxQ4hnqjQtVcY-4" value="&amp;lt;&amp;lt;Interface&amp;gt;&amp;gt;&lt;br&gt;ILogin" style="swimlane;fontStyle=1;align=center;verticalAlign=top;childLayout=stackLayout;horizontal=1;startSize=40;horizontalStack=0;resizeParent=1;resizeParentMax=0;resizeLast=0;collapsible=1;marginBottom=0;whiteSpace=wrap;html=1;fillColor=#60a917;fontColor=#ffffff;strokeColor=#2D7600;" parent="WIyWlLk6GJQsqaUBKTNV-1" vertex="1">
          <mxGeometry x="240" y="140" width="190" height="100" as="geometry" />
        </mxCell>
        <mxCell id="NNcABHQYxQ4hnqjQtVcY-6" value="" style="line;strokeWidth=1;fillColor=none;align=left;verticalAlign=middle;spacingTop=-1;spacingLeft=3;spacingRight=3;rotatable=0;labelPosition=right;points=[];portConstraint=eastwest;strokeColor=inherit;" parent="NNcABHQYxQ4hnqjQtVcY-4" vertex="1">
          <mxGeometry y="40" width="190" height="8" as="geometry" />
        </mxCell>
        <mxCell id="NNcABHQYxQ4hnqjQtVcY-7" value="&lt;div align=&quot;center&quot;&gt;+verificaCredenziali(Username: String, Password: String)&lt;br&gt;&lt;/div&gt;&lt;br&gt;&lt;span style=&quot;white-space: pre;&quot;&gt;	&lt;/span&gt;" style="text;strokeColor=none;fillColor=none;align=left;verticalAlign=top;spacingLeft=4;spacingRight=4;overflow=hidden;rotatable=0;points=[[0,0.5],[1,0.5]];portConstraint=eastwest;whiteSpace=wrap;html=1;" parent="NNcABHQYxQ4hnqjQtVcY-4" vertex="1">
          <mxGeometry y="48" width="190" height="52" as="geometry" />
        </mxCell>
      </root>
    </mxGraphModel>
  </diagram>
</mxfile>
